<svg xmlns="http://www.w3.org/2000/svg" viewBox="0 0 44 21.747" id="alibaba-logo"><path d="M17.362 18.648S10.335 20.21 8.13 19.98s-8.267-1.332.092-5.787v-2.756s4.977 1.883 9.846-1.47c0 0 .172.448.189.93l.827-.052s.276-1.653-1.963-2.273l.637.828s-3.186 2.583-8.353 1.447l2.308-2.187-.689-1.722s10.919-3.41 14.33-3.651l-1.24-1.206.551-.379s5.123.712 5.959 2.549c.7 1.539-.172 2.503-.815 3.468s-7.119 8.267-7.854 9.599c-.735 1.332-.597 2.48-.184 2.893.413.413 1.102 1.516 4.868.781S40.326 16.445 44 13.689c0 0-10.15 4.179-14.651 4.547s-4.455.184-4.225-.597c.23-.781 8.267-9.369 7.992-12.998S29.35-.044 23.195.002 7.303 5.237 3.95 9.738-.321 15.617.092 18.281s6.522 6.062 17.27.367z"></path></svg>