<svg xmlns="http://www.w3.org/2000/svg" enable-background="new 0 0 28 11.167" viewBox="0 0 28 11.167" id="aol-logo"><path d="M7.78 8.922H3.545L2.688 11H0L4.519 0h2.37l4.419 11H8.62L7.78 8.922zM7.074 6.976L5.696 3.282 4.301 6.976H7.074zM23.419 0v11H21V0H23.419zM26.471 8.11C27.328 8.11 28 8.781 28 9.639c0 .856-.672 1.529-1.529 1.529-.856 0-1.529-.672-1.529-1.529C24.942 8.781 25.615 8.11 26.471 8.11zM15.677 2.513c-2.39 0-4.328 1.937-4.328 4.327 0 2.39 1.937 4.328 4.328 4.328s4.328-1.937 4.328-4.328C20.005 4.45 18.068 2.513 15.677 2.513zM15.677 8.812c-1.09 0-1.972-.883-1.972-1.972 0-1.089.883-1.972 1.972-1.972S17.65 5.751 17.65 6.84C17.65 7.929 16.767 8.812 15.677 8.812z"></path></svg>