<svg xmlns="http://www.w3.org/2000/svg" width="20.026" height="21.362" id="leaves"><path fill="#231f20" d="M6.443 1.458c.11.934-.401 1.725-.401 1.725-.193.323-2.623 3.899-1.302 7.928.769 2.111 2.103 3.23 2.489 3.577.547.446 1.023.243 1.023.243s3.233-1.08 3.652-4.869C12.361 5.933 10.082 1.828 5.498 0c0 0 .855.69.945 1.458zm3.35 13.785c-3.214 1.242-3.425 4.146-3.425 4.146s-.069.439.443.781c.391.233 1.669 1.061 3.687 1.188 3.816.126 6.388-2.712 6.627-2.946 0 0 .575-.606 1.415-.737.69-.108 1.486.428 1.486.428-1.849-2.331-4.421-3.466-7.002-3.466a8.98 8.98 0 0 0-3.231.606zM.879 11.019c.251.568.081 1.166.081 1.166-.06.241-.899 2.969.716 5.255.895 1.184 1.953 1.631 2.265 1.774.431.176.692-.045.692-.045s1.831-1.309 1.36-3.78C5.48 12.694 3.246 10.547 0 10.282c0 0 .673.27.879.737z"></path></svg>